{
  "accessors": [
    {
      "bufferView": 2,
      "componentType": 5126,
      "count": 4,
      "max": [
        4.1168599128723145,
        0.011798500083386898,
        3.530410051345825
      ],
      "min": [
        0.0,
        0.011798500083386898,
        0.0
      ],
      "type": "VEC3"
    },
    {
      "bufferView": 2,
      "byteOffset": 48,
      "componentType": 5126,
      "count": 4,
      "max": [
        0.0,
        1.0,
        0.0
      ],
      "min": [
        0.0,
        1.0,
        0.0
      ],
      "type": "VEC3"
    },
    {
      "bufferView": 1,
      "componentType": 5126,
      "count": 4,
      "max": [
        0.9999996423721313,
        0.9999996423721313
      ],
      "min": [
        0.0,
        0.0
      ],
      "type": "VEC2"
    },
    {
      "bufferView": 0,
      "componentType": 5125,
      "count": 6,
      "type": "SCALAR"
    },
    {
      "bufferView": 2,
      "byteOffset": 96,
      "componentType": 5126,
      "count": 158,
      "max": [
        2.4909470081329346,
        2.0791900157928467,
        1.995468020439148
      ],
      "min": [
        1.6518499851226807,
        0.6688140034675598,
        1.2413560152053833
      ],
      "type": "VEC3"
    },
    {
      "bufferView": 2,
      "byteOffset": 1992,
      "componentType": 5126,
      "count": 158,
      "max": [
        0.8800393342971802,
        0.9501615166664124,
        0.999839723110199
      ],
      "min": [
        -0.8387893438339233,
        -0.8287986516952515,
        -0.9995133876800537
      ],
      "type": "VEC3"
    },
    {
      "bufferView": 1,
      "byteOffset": 32,
      "componentType": 5126,
      "count": 158,
      "max": [
        0.9487820863723755,
        22.36600112915039
      ],
      "min": [
        0.004095462150871754,
        -0.19726476073265076
      ],
      "type": "VEC2"
    },
    {
      "bufferView": 0,
      "byteOffset": 24,
      "componentType": 5125,
      "count": 288,
      "type": "SCALAR"
    },
    {
      "bufferView": 2,
      "byteOffset": 3888,
      "componentType": 5126,
      "count": 2019,
      "max": [
        3.4549198150634766,
        3.5648601055145264,
        2.4698119163513184
      ],
      "min": [
        0.5008499622344971,
        0.0,
        0.4846000671386719
      ],
      "type": "VEC3"
    },
    {
      "bufferView": 2,
      "byteOffset": 28116,
      "componentType": 5126,
      "count": 2019,
      "max": [
        0.9998278617858887,
        1.0,
        1.0
      ],
      "min": [
        -0.9994929432868958,
        -0.9991472363471985,
        -1.0
      ],
      "type": "VEC3"
    },
    {
      "bufferView": 1,
      "byteOffset": 1296,
      "componentType": 5126,
      "count": 2019,
      "max": [
        2.391876459121704,
        0.9964538216590881
      ],
      "min": [
        0.0008519559632986784,
        0.004744772799313068
      ],
      "type": "VEC2"
    },
    {
      "bufferView": 0,
      "byteOffset": 1176,
      "componentType": 5125,
      "count": 4215,
      "type": "SCALAR"
    }
  ],
  "asset": {
    "extras": {
      "author": "Senpai-3689 (https://sketchfab.com/Senpai3689)",
      "license": "CC-BY-4.0 (http://creativecommons.org/licenses/by/4.0/)",
      "source": "https://sketchfab.com/3d-models/hatsune-miku-chibi-w-stand-7310aaeb8370428e966bdcff414273e7",
      "title": "Hatsune Miku (Chibi) w/ Stand"
    },
    "generator": "Sketchfab-12.67.0",
    "version": "2.0"
  },
  "bufferViews": [
    {
      "buffer": 0,
      "byteLength": 18036,
      "name": "floatBufferViews",
      "target": 34963
    },
    {
      "buffer": 0,
      "byteLength": 17448,
      "byteOffset": 18036,
      "byteStride": 8,
      "name": "floatBufferViews",
      "target": 34962
    },
    {
      "buffer": 0,
      "byteLength": 52344,
      "byteOffset": 35484,
      "byteStride": 12,
      "name": "floatBufferViews",
      "target": 34962
    }
  ],
  "buffers": [
    {
      "byteLength": 87828,
      "uri": "scene.bin"
    }
  ],
  "images": [
    {
      "uri": "textures/test_kage_baseColor.png"
    },
    {
      "uri": "textures/test_test_te_000_r1_baseColor.png"
    },
    {
      "uri": "textures/test_test_alpha_baseColor.png"
    }
  ],
  "materials": [
    {
      "doubleSided": true,
      "name": "test_kage",
      "pbrMetallicRoughness": {
        "baseColorTexture": {
          "index": 0
        },
        "metallicFactor": 0.0,
        "roughnessFactor": 0.6
      }
    },
    {
      "doubleSided": true,
      "name": "test_test_te_000_r1",
      "pbrMetallicRoughness": {
        "baseColorTexture": {
          "index": 1
        },
        "metallicFactor": 0.0,
        "roughnessFactor": 0.6
      }
    },
    {
      "doubleSided": true,
      "name": "test_test_alpha",
      "pbrMetallicRoughness": {
        "baseColorTexture": {
          "index": 2
        },
        "metallicFactor": 0.0,
        "roughnessFactor": 0.6
      }
    }
  ],
  "meshes": [
    {
      "name": "test_kage",
      "primitives": [
        {
          "attributes": {
            "NORMAL": 1,
            "POSITION": 0,
            "TEXCOORD_0": 2
          },
          "indices": 3,
          "material": 0,
          "mode": 4
        }
      ]
    },
    {
      "name": "test_test_alpha",
      "primitives": [
        {
          "attributes": {
            "NORMAL": 5,
            "POSITION": 4,
            "TEXCOORD_0": 6
          },
          "indices": 7,
          "material": 2,
          "mode": 4
        }
      ]
    },
    {
      "name": "test_test_te_000_r1",
      "primitives": [
        {
          "attributes": {
            "NORMAL": 9,
            "POSITION": 8,
            "TEXCOORD_0": 10
          },
          "indices": 11,
          "material": 1,
          "mode": 4
        }
      ]
    }
  ],
  "nodes": [
    {
      "children": [
        1
      ],
      "matrix": [
        0.5661319494247437,
        0.0,
        0.0,
        0.0,
        0.0,
        1.25706545045455e-16,
        -0.5661319494247437,
        0.0,
        0.0,
        0.5661319494247437,
        1.25706545045455e-16,
        0.0,
        0.0,
        0.0,
        0.0,
        1.0
      ],
      "name": "Sketchfab_model"
    },
    {
      "children": [
        2
      ],
      "matrix": [
        1.0,
        0.0,
        0.0,
        0.0,
        0.0,
        1.0,
        0.0,
        0.0,
        0.0,
        0.0,
        1.0,
        0.0,
        -2.0584299564361572,
        0.0,
        -1.6686400175094604,
        1.0
      ],
      "name": "MikuFigure.dae.cleaner.gles"
    },
    {
      "children": [
        3
      ],
      "matrix": [
        1.0,
        0.0,
        0.0,
        0.0,
        0.0,
        -4.371139006309477e-08,
        0.999999999999999,
        0.0,
        0.0,
        -0.999999999999999,
        -4.371139006309477e-08,
        0.0,
        0.0,
        0.0,
        0.0,
        1.0
      ],
      "name": "Collada visual scene group"
    },
    {
      "children": [
        4,
        5,
        6
      ],
      "name": "ROOMITEMS002_ALL"
    },
    {
      "mesh": 0,
      "name": "test_kage"
    },
    {
      "mesh": 1,
      "name": "test_test_alpha"
    },
    {
      "mesh": 2,
      "name": "test_test_te_000_r1"
    }
  ],
  "samplers": [
    {
      "magFilter": 9729,
      "minFilter": 9987,
      "wrapS": 10497,
      "wrapT": 10497
    }
  ],
  "scene": 0,
  "scenes": [
    {
      "name": "Sketchfab_Scene",
      "nodes": [
        0
      ]
    }
  ],
  "textures": [
    {
      "sampler": 0,
      "source": 0
    },
    {
      "sampler": 0,
      "source": 1
    },
    {
      "sampler": 0,
      "source": 2
    }
  ]
}
